ply
format ascii 1.0
comment ball mesh
element vertex 458
property float x
property float y
property float z
property uchar red
property uchar green
property uchar blue
element face 912
property list uchar int vertex_indices
property uchar red
property uchar green
property uchar blue
end_header
-1.548 -0.125 -0.125 226  14 226
-1.602 -0.157 0.173 226  14 226
-1.675 0.100 0.100 226  14 226
-1.602 0.173 -0.157 226  14 226
-1.548 -0.114 0.400 226  14 226
-1.602 0.099 0.358 226  14 226
-1.602 0.358 0.099 226  14 226
-1.548 0.400 -0.114 226  14 226
-1.590 0.314 0.314 226  14 226
-1.314 -0.842 0.100   0   0 128
-1.423 -0.618 0.142   0   0 128
-1.359 -0.629 -0.125   0   0 128
-1.350 -0.661 0.357   0   0 128
-1.464 -0.367 -0.199   0   0 128
-1.350 -0.409 -0.409   0   0 128
-1.495 -0.409 0.026 226  14 226
-1.485 -0.378 0.325   0   0 128
-1.350 -0.409 0.609   0   0 128
-1.464 -0.199 -0.367   0   0 128
-1.359 -0.125 -0.629   0   0 128
-1.458 -0.156 0.609   0   0 128
-1.350 -0.157 0.861   0   0 128
-1.423 0.142 -0.618   0   0 128
-1.314 0.100 -0.842   0   0 128
-1.495 0.026 -0.409 226  14 226
-1.495 0.100 0.609 226  14 226
-1.423 0.057 0.818   0   0 128
-1.314 0.100 1.042   0   0 128
-1.350 0.357 -0.661   0   0 128
-1.485 0.325 -0.378   0   0 128
-1.494 0.356 0.538   0   0 128
-1.359 0.325 0.829   0   0 128
-1.350 0.609 -0.409   0   0 128
-1.458 0.609 -0.156   0   0 128
-1.495 0.609 0.100 226  14 226
-1.494 0.538 0.356   0   0 128
-1.350 0.609 0.609   0   0 128
-1.350 0.861 -0.157   0   0 128
-1.423 0.818 0.057   0   0 128
-1.359 0.829 0.325   0   0 128
-1.314 1.042 0.100   0   0 128
-1.205 -0.914 -0.157   0   0 128
-1.096 -1.096 0.100 226  14 226
-1.169 -0.946 0.389   0   0 128
-1.061 -0.915 -0.410   0   0 128
-1.242 -0.661 -0.410   0   0 128
-1.098 -0.662 -0.662   0   0 128
-1.085 -0.872 0.652   0   0 128
-1.242 -0.661 0.610   0   0 128
-1.098 -0.661 0.862   0   0 128
-1.242 -0.410 -0.661   0   0 128
-1.061 -0.410 -0.915   0   0 128
-1.241 -0.410 0.861   0   0 128
-1.061 -0.410 1.115   0   0 128
-1.205 -0.157 -0.914   0   0 128
-1.205 -0.157 1.115   0   0 128
-1.096 0.100 -1.096 226  14 226
-1.096 0.100 1.296 226  14 226
-1.169 0.389 -0.946   0   0 128
-1.169 0.389 1.146   0   0 128
-1.242 0.610 -0.661   0   0 128
-1.085 0.652 -0.872   0   0 128
-1.242 0.609 0.861   0   0 128
-1.085 0.652 1.072   0   0 128
-1.098 0.862 -0.661   0   0 128
-1.241 0.861 -0.410   0   0 128
-1.242 0.861 0.609   0   0 128
-1.098 0.861 0.861   0   0 128
-1.061 1.115 -0.410   0   0 128
-1.205 1.115 -0.157   0   0 128
-1.169 1.146 0.389   0   0 128
-1.085 1.072 0.652   0   0 128
-1.096 1.296 0.100 226  14 226
-0.946 -1.169 -0.189   0   0 128
-0.842 -1.314 0.100   0   0 128
-0.915 -1.205 0.357   0   0 128
-0.916 -0.916 -0.693   0   0 128
-0.872 -1.085 -0.452   0   0 128
-0.915 -1.061 0.610   0   0 128
-0.916 -0.916 0.893   0   0 128
-0.916 -0.693 -0.916   0   0 128
-0.843 -0.843 -0.843   0   0 128
-0.843 -0.843 1.043   0   0 128
-0.916 -0.693 1.116   0   0 128
-0.872 -0.452 -1.085   0   0 128
-0.872 -0.452 1.285   0   0 128
-0.946 -0.189 -1.169   0   0 128
-0.946 -0.189 1.369   0   0 128
-0.842 0.100 -1.314   0   0 128
-0.842 0.100 1.514   0   0 128
-0.915 0.357 -1.205   0   0 128
-0.915 0.357 1.405   0   0 128
-0.915 0.610 -1.061   0   0 128
-0.915 0.610 1.261   0   0 128
-0.916 0.893 -0.916   0   0 128
-0.916 0.893 1.116   0   0 128
-0.916 1.116 -0.693   0   0 128
-0.843 1.043 -0.843   0   0 128
-0.916 1.116 0.893   0   0 128
-0.843 1.043 1.043   0   0 128
-0.872 1.285 -0.452   0   0 128
-0.946 1.369 -0.189   0   0 128
-0.915 1.405 0.357   0   0 128
-0.915 1.261 0.610   0   0 128
-0.842 1.514 0.100   0   0 128
-0.629 -1.359 -0.125   0   0 128
-0.618 -1.423 0.143   0   0 128
-0.661 -1.350 0.357   0   0 128
-0.661 -1.098 -0.662   0   0 128
-0.661 -1.242 -0.409   0   0 128
-0.661 -1.241 0.610   0   0 128
-0.662 -1.098 0.862   0   0 128
-0.693 -0.916 -0.916   0   0 128
-0.693 -0.916 1.116   0   0 128
-0.661 -0.661 -1.098   0   0 128
-0.661 -0.661 1.298   0   0 128
-0.661 -0.409 -1.242   0   0 128
-0.661 -0.409 1.442   0   0 128
-0.629 -0.125 -1.359   0   0 128
-0.629 -0.125 1.559   0   0 128
-0.618 0.143 -1.423   0   0 128
-0.618 0.143 1.623   0   0 128
-0.661 0.357 -1.350   0   0 128
-0.661 0.357 1.550   0   0 128
-0.661 0.610 -1.241   0   0 128
-0.661 0.610 1.441   0   0 128
-0.662 0.862 -1.098   0   0 128
-0.662 0.862 1.298   0   0 128
-0.693 1.116 -0.916   0   0 128
-0.693 1.116 1.116   0   0 128
-0.661 1.298 -0.661   0   0 128
-0.662 1.298 0.861   0   0 128
-0.661 1.442 -0.409   0   0 128
-0.629 1.559 -0.125   0   0 128
-0.661 1.550 0.357   0   0 128
-0.661 1.441 0.610   0   0 128
-0.618 1.623 0.143   0   0 128
-0.409 -1.350 -0.409   0   0 128
-0.338 -1.494 -0.156   0   0 128
-0.409 -1.495 0.100 226  14 226
-0.408 -1.458 0.356   0   0 128
-0.409 -1.350 0.609   0   0 128
-0.410 -1.061 -0.915   0   0 128
-0.410 -1.242 -0.661   0   0 128
-0.410 -1.241 0.861   0   0 128
-0.410 -1.061 1.115   0   0 128
-0.452 -0.872 -1.085   0   0 128
-0.452 -0.872 1.285   0   0 128
-0.409 -0.661 -1.242   0   0 128
-0.409 -0.661 1.442   0   0 128
-0.409 -0.409 -1.350   0   0 128
-0.409 -0.409 1.550   0   0 128
-0.338 -0.156 -1.494   0   0 128
-0.338 -0.156 1.694   0   0 128
-0.409 0.100 -1.495 226  14 226
-0.409 0.100 1.695 226  14 226
-0.408 0.356 -1.458   0   0 128
-0.408 0.356 1.658   0   0 128
-0.409 0.609 -1.350   0   0 128
-0.409 0.609 1.550   0   0 128
-0.410 0.861 -1.241   0   0 128
-0.410 0.861 1.441   0   0 128
-0.410 1.115 -1.061   0   0 128
-0.410 1.115 1.261   0   0 128
-0.452 1.285 -0.872   0   0 128
-0.452 1.285 1.072   0   0 128
-0.409 1.442 -0.661   0   0 128
-0.409 1.550 -0.409   0   0 128
-0.409 1.550 0.609   0   0 128
-0.410 1.442 0.861   0   0 128
-0.338 1.694 -0.156   0   0 128
-0.409 1.695 0.100 226  14 226
-0.409 1.658 0.356   0   0 128
-0.125 -1.359 -0.629   0   0 128
-0.199 -1.464 -0.368   0   0 128
-0.084 -1.566 -0.157 226  14 226
-0.158 -1.602 0.101 226  14 226
-0.157 -1.530 0.357 226  14 226
-0.156 -1.458 0.608   0   0 128
-0.157 -1.350 0.861   0   0 128
-0.157 -1.205 -0.914   0   0 128
-0.157 -1.205 1.115   0   0 128
-0.189 -0.946 -1.169   0   0 128
-0.189 -0.946 1.369   0   0 128
-0.125 -0.629 -1.359   0   0 128
-0.125 -0.629 1.559   0   0 128
-0.156 -0.338 -1.494   0   0 128
-0.156 -0.338 1.694   0   0 128
-0.114 -0.114 -1.590 226  14 226
-0.114 -0.114 1.790 226  14 226
-0.158 0.102 -1.602 226  14 226
-0.158 0.102 1.802 226  14 226
-0.157 0.357 -1.530 226  14 226
-0.157 0.357 1.730 226  14 226
-0.156 0.608 -1.458   0   0 128
-0.156 0.608 1.658   0   0 128
-0.157 0.861 -1.350   0   0 128
-0.157 0.861 1.550   0   0 128
-0.157 1.115 -1.205   0   0 128
-0.157 1.115 1.405   0   0 128
-0.189 1.369 -0.946   0   0 128
-0.189 1.369 1.146   0   0 128
-0.125 1.559 -0.629   0   0 128
-0.157 1.550 0.861   0   0 128
-0.156 1.694 -0.338   0   0 128
-0.114 1.790 -0.114 226  14 226
-0.158 1.802 0.101 226  14 226
-0.200 1.748 0.314 226  14 226
-0.125 1.685 0.578   0   0 128
0.174 -1.602 -0.157 226  14 226
0.100 -1.675 0.100 226  14 226
0.098 -1.602 0.358 226  14 226
0.100 -1.314 -0.842   0   0 128
0.142 -1.423 -0.618   0   0 128
0.026 -1.495 -0.409 226  14 226
0.100 -1.495 0.609 226  14 226
0.057 -1.423 0.818   0   0 128
0.100 -1.314 1.042   0   0 128
0.100 -1.096 -1.096 226  14 226
0.100 -1.096 1.296 226  14 226
0.100 -0.842 -1.314   0   0 128
0.100 -0.842 1.514   0   0 128
0.143 -0.618 -1.423   0   0 128
0.143 -0.618 1.623   0   0 128
0.100 -0.409 -1.495 226  14 226
0.100 -0.409 1.695 226  14 226
0.102 -0.158 -1.602 226  14 226
0.102 -0.158 1.802 226  14 226
0.100 0.100 -1.675 226  14 226
0.100 0.100 1.875 226  14 226
0.098 0.358 -1.602 226  14 226
0.098 0.358 1.802 226  14 226
0.100 0.609 -1.495 226  14 226
0.100 0.609 1.695 226  14 226
0.057 0.818 -1.423   0   0 128
0.057 0.818 1.623   0   0 128
0.100 1.042 -1.314   0   0 128
0.100 1.042 1.514   0   0 128
0.100 1.296 -1.096 226  14 226
0.100 1.296 1.296 226  14 226
0.100 1.514 -0.842   0   0 128
0.100 1.514 1.042   0   0 128
0.143 1.623 -0.618   0   0 128
0.100 1.695 -0.409 226  14 226
0.102 1.802 -0.158 226  14 226
0.174 1.695 0.609 226  14 226
0.026 1.802 0.357 226  14 226
0.058 1.623 0.818   0   0 128
0.100 1.875 0.100 226  14 226
0.400 -1.548 -0.114 226  14 226
0.358 -1.602 0.099 226  14 226
0.314 -1.590 0.314 226  14 226
0.357 -1.350 -0.661   0   0 128
0.325 -1.485 -0.378   0   0 128
0.356 -1.494 0.538   0   0 128
0.325 -1.359 0.829   0   0 128
0.389 -1.169 -0.946   0   0 128
0.389 -1.169 1.146   0   0 128
0.357 -0.915 -1.205   0   0 128
0.357 -0.915 1.405   0   0 128
0.357 -0.661 -1.350   0   0 128
0.357 -0.661 1.550   0   0 128
0.356 -0.408 -1.458   0   0 128
0.356 -0.408 1.658   0   0 128
0.357 -0.157 -1.530 226  14 226
0.357 -0.157 1.730 226  14 226
0.358 0.098 -1.602 226  14 226
0.358 0.098 1.802 226  14 226
0.314 0.314 -1.590 226  14 226
0.314 0.314 1.790 226  14 226
0.356 0.538 -1.494   0   0 128
0.356 0.538 1.694   0   0 128
0.325 0.829 -1.359   0   0 128
0.325 0.829 1.559   0   0 128
0.389 1.146 -1.169   0   0 128
0.389 1.146 1.369   0   0 128
0.357 1.405 -0.915   0   0 128
0.357 1.405 1.114   0   0 128
0.357 1.550 -0.661   0   0 128
0.325 1.559 0.829   0   0 128
0.356 1.658 -0.408   0   0 128
0.357 1.730 -0.157 226  14 226
0.399 1.664 0.568   0   0 128
0.284 1.766 0.357 226  14 226
0.358 1.802 0.099 226  14 226
0.609 -1.350 -0.409   0   0 128
0.609 -1.458 -0.156   0   0 128
0.609 -1.495 0.100 226  14 226
0.538 -1.494 0.356   0   0 128
0.609 -1.350 0.609   0   0 128
0.652 -1.085 -0.872   0   0 128
0.610 -1.242 -0.661   0   0 128
0.609 -1.242 0.861   0   0 128
0.652 -1.085 1.072   0   0 128
0.610 -0.915 -1.061   0   0 128
0.610 -0.915 1.261   0   0 128
0.610 -0.661 -1.241   0   0 128
0.610 -0.661 1.441   0   0 128
0.609 -0.409 -1.350   0   0 128
0.609 -0.409 1.550   0   0 128
0.608 -0.156 -1.458   0   0 128
0.608 -0.156 1.658   0   0 128
0.609 0.100 -1.495 226  14 226
0.609 0.100 1.695 226  14 226
0.538 0.356 -1.494   0   0 128
0.538 0.356 1.694   0   0 128
0.609 0.609 -1.350   0   0 128
0.609 0.609 1.550   0   0 128
0.609 0.861 -1.242   0   0 128
0.609 0.861 1.442   0   0 128
0.652 1.072 -1.085   0   0 128
0.652 1.072 1.285   0   0 128
0.610 1.261 -0.915   0   0 128
0.610 1.261 1.115   0   0 128
0.610 1.441 -0.661   0   0 128
0.609 1.550 -0.409   0   0 128
0.610 1.442 0.861   0   0 128
0.609 1.550 0.609   0   0 128
0.608 1.658 -0.156   0   0 128
0.609 1.695 0.100 226  14 226
0.538 1.694 0.356   0   0 128
0.861 -1.350 -0.157   0   0 128
0.818 -1.423 0.057   0   0 128
0.829 -1.359 0.325   0   0 128
0.862 -1.098 -0.661   0   0 128
0.861 -1.241 -0.410   0   0 128
0.861 -1.242 0.609   0   0 128
0.861 -1.098 0.861   0   0 128
0.893 -0.916 -0.916   0   0 128
0.893 -0.916 1.116   0   0 128
0.862 -0.662 -1.098   0   0 128
0.862 -0.662 1.298   0   0 128
0.861 -0.410 -1.241   0   0 128
0.861 -0.410 1.441   0   0 128
0.861 -0.157 -1.350   0   0 128
0.861 -0.157 1.550   0   0 128
0.818 0.057 -1.423   0   0 128
0.818 0.057 1.623   0   0 128
0.829 0.325 -1.359   0   0 128
0.829 0.325 1.559   0   0 128
0.861 0.609 -1.242   0   0 128
0.861 0.609 1.442   0   0 128
0.861 0.861 -1.098   0   0 128
0.861 0.861 1.298   0   0 128
0.893 1.116 -0.916   0   0 128
0.893 1.116 1.116   0   0 128
0.862 1.298 -0.662   0   0 128
0.861 1.298 0.862   0   0 128
0.861 1.441 -0.410   0   0 128
0.861 1.550 -0.157   0   0 128
0.861 1.442 0.609   0   0 128
0.829 1.559 0.325   0   0 128
0.818 1.623 0.057   0   0 128
1.042 -1.314 0.100   0   0 128
1.115 -1.061 -0.410   0   0 128
1.115 -1.205 -0.157   0   0 128
1.146 -1.169 0.389   0   0 128
1.072 -1.085 0.652   0   0 128
1.043 -0.843 -0.843   0   0 128
1.116 -0.916 -0.693   0   0 128
1.116 -0.916 0.893   0   0 128
1.043 -0.843 1.043   0   0 128
1.116 -0.693 -0.916   0   0 128
1.116 -0.693 1.116   0   0 128
1.115 -0.410 -1.061   0   0 128
1.115 -0.410 1.261   0   0 128
1.115 -0.157 -1.205   0   0 128
1.115 -0.157 1.405   0   0 128
1.042 0.100 -1.314   0   0 128
1.042 0.100 1.514   0   0 128
1.146 0.389 -1.169   0   0 128
1.146 0.389 1.369   0   0 128
1.072 0.652 -1.085   0   0 128
1.072 0.652 1.285   0   0 128
1.116 0.893 -0.916   0   0 128
1.116 0.893 1.116   0   0 128
1.043 1.043 -0.843   0   0 128
1.043 1.043 1.043   0   0 128
1.116 1.116 -0.693   0   0 128
1.115 1.261 -0.410   0   0 128
1.116 1.116 0.893   0   0 128
1.072 1.285 0.652   0   0 128
1.115 1.405 -0.157   0   0 128
1.042 1.514 0.100   0   0 128
1.146 1.369 0.389   0   0 128
1.296 -1.096 0.100 226  14 226
1.285 -0.872 -0.452   0   0 128
1.369 -0.946 -0.189   0   0 128
1.405 -0.915 0.357   0   0 128
1.261 -0.915 0.610   0   0 128
1.298 -0.661 -0.661   0   0 128
1.298 -0.662 0.861   0   0 128
1.285 -0.452 -0.872   0   0 128
1.285 -0.452 1.072   0   0 128
1.369 -0.189 -0.946   0   0 128
1.369 -0.189 1.146   0   0 128
1.296 0.100 -1.096 226  14 226
1.296 0.100 1.296 226  14 226
1.405 0.357 -0.915   0   0 128
1.405 0.357 1.114   0   0 128
1.261 0.610 -0.915   0   0 128
1.261 0.610 1.115   0   0 128
1.298 0.861 -0.662   0   0 128
1.298 0.862 0.862   0   0 128
1.285 1.072 -0.452   0   0 128
1.261 1.115 0.610   0   0 128
1.369 1.146 -0.189   0   0 128
1.296 1.296 0.100 226  14 226
1.405 1.114 0.357   0   0 128
1.514 -0.842 0.100   0   0 128
1.442 -0.661 -0.409   0   0 128
1.559 -0.629 -0.125   0   0 128
1.550 -0.661 0.357   0   0 128
1.441 -0.661 0.610   0   0 128
1.442 -0.409 -0.661   0   0 128
1.550 -0.409 -0.409   0   0 128
1.550 -0.409 0.609   0   0 128
1.442 -0.410 0.861   0   0 128
1.559 -0.125 -0.629   0   0 128
1.550 -0.157 0.861   0   0 128
1.514 0.100 -0.842   0   0 128
1.514 0.100 1.042   0   0 128
1.550 0.357 -0.661   0   0 128
1.559 0.325 0.829   0   0 128
1.441 0.610 -0.661   0   0 128
1.550 0.609 -0.409   0   0 128
1.442 0.610 0.861   0   0 128
1.550 0.609 0.609   0   0 128
1.442 0.861 -0.410   0   0 128
1.550 0.861 -0.157   0   0 128
1.442 0.861 0.610   0   0 128
1.559 0.829 0.325   0   0 128
1.514 1.042 0.100   0   0 128
1.623 -0.618 0.143   0   0 128
1.694 -0.338 -0.156   0   0 128
1.695 -0.409 0.100 226  14 226
1.658 -0.409 0.356   0   0 128
1.694 -0.156 -0.338   0   0 128
1.790 -0.114 -0.114 226  14 226
1.802 -0.158 0.101 226  14 226
1.748 -0.200 0.314 226  14 226
1.685 -0.125 0.578   0   0 128
1.623 0.143 -0.618   0   0 128
1.695 0.100 -0.409 226  14 226
1.802 0.101 -0.158 226  14 226
1.802 0.027 0.357 226  14 226
1.695 0.174 0.609 226  14 226
1.623 0.058 0.818   0   0 128
1.658 0.356 -0.409   0   0 128
1.748 0.314 -0.200 226  14 226
1.748 0.325 0.325 226  14 226
1.664 0.399 0.567   0   0 128
1.685 0.578 -0.125   0   0 128
1.802 0.357 0.027 226  14 226
1.695 0.609 0.174 226  14 226
1.664 0.567 0.399   0   0 128
1.623 0.818 0.058   0   0 128
1.875 0.100 0.100 226  14 226
3 0 1 2 226  14 226
3 0 2 3 226  14 226
3 1 4 5 226  14 226
3 1 5 2 226  14 226
3 3 2 6 226  14 226
3 3 6 7 226  14 226
3 2 5 8 226  14 226
3 2 8 6 226  14 226
3 9 10 11   0   0 128
3 12 10 9   0   0 128
3 11 13 14   0   0 128
3 11 10 15   0   0 128
3 11 15 13   0   0 128
3 10 12 16   0   0 128
3 10 16 15   0   0 128
3 17 16 12   0   0 128
3 14 18 19   0   0 128
3 18 14 13   0   0 128
3 18 13 0   0   0 128
3 15 1 0 226  14 226
3 15 0 13 226  14 226
3 16 4 1 226  14 226
3 16 1 15 226  14 226
3 16 17 20   0   0 128
3 16 20 4   0   0 128
3 21 20 17   0   0 128
3 19 22 23   0   0 128
3 19 18 24   0   0 128
3 19 24 22   0   0 128
3 0 3 24 226  14 226
3 0 24 18 226  14 226
3 25 5 4 226  14 226
3 25 4 20 226  14 226
3 20 21 26   0   0 128
3 20 26 25   0   0 128
3 27 26 21   0   0 128
3 23 22 28   0   0 128
3 22 24 29   0   0 128
3 22 29 28   0   0 128
3 3 7 29 226  14 226
3 3 29 24 226  14 226
3 30 8 5 226  14 226
3 30 5 25 226  14 226
3 25 26 31   0   0 128
3 25 31 30   0   0 128
3 31 26 27   0   0 128
3 28 29 32   0   0 128
3 33 32 29   0   0 128
3 33 29 7   0   0 128
3 34 33 7 226  14 226
3 34 7 6 226  14 226
3 35 34 6 226  14 226
3 35 6 8 226  14 226
3 30 36 35   0   0 128
3 30 35 8   0   0 128
3 36 30 31   0   0 128
3 32 33 37   0   0 128
3 33 34 38   0   0 128
3 33 38 37   0   0 128
3 34 35 39   0   0 128
3 34 39 38   0   0 128
3 39 35 36   0   0 128
3 37 38 40   0   0 128
3 40 38 39   0   0 128
3 41 42 9   0   0 128
3 43 9 42   0   0 128
3 44 45 46   0   0 128
3 45 44 41   0   0 128
3 45 41 11   0   0 128
3 11 41 9   0   0 128
3 43 12 9   0   0 128
3 43 47 48   0   0 128
3 43 48 12   0   0 128
3 49 48 47   0   0 128
3 46 50 51   0   0 128
3 50 46 45   0   0 128
3 50 45 14   0   0 128
3 14 45 11   0   0 128
3 48 17 12   0   0 128
3 48 49 52   0   0 128
3 48 52 17   0   0 128
3 53 52 49   0   0 128
3 54 51 50   0   0 128
3 54 50 19   0   0 128
3 19 50 14   0   0 128
3 52 21 17   0   0 128
3 52 53 55   0   0 128
3 52 55 21   0   0 128
3 56 54 23   0   0 128
3 23 54 19   0   0 128
3 55 27 21   0   0 128
3 57 27 55   0   0 128
3 56 23 58   0   0 128
3 58 23 28   0   0 128
3 27 59 31   0   0 128
3 57 59 27   0   0 128
3 60 61 58   0   0 128
3 60 58 28   0   0 128
3 60 28 32   0   0 128
3 31 62 36   0   0 128
3 59 63 62   0   0 128
3 59 62 31   0   0 128
3 61 60 64   0   0 128
3 65 64 60   0   0 128
3 65 60 32   0   0 128
3 65 32 37   0   0 128
3 36 66 39   0   0 128
3 62 67 66   0   0 128
3 62 66 36   0   0 128
3 67 62 63   0   0 128
3 64 65 68   0   0 128
3 69 68 65   0   0 128
3 69 65 37   0   0 128
3 69 37 40   0   0 128
3 39 70 40   0   0 128
3 66 71 70   0   0 128
3 66 70 39   0   0 128
3 71 66 67   0   0 128
3 69 40 72   0   0 128
3 70 72 40   0   0 128
3 73 74 42   0   0 128
3 75 42 74   0   0 128
3 76 77 44   0   0 128
3 73 41 44   0   0 128
3 73 44 77   0   0 128
3 41 73 42   0   0 128
3 75 43 42   0   0 128
3 78 47 43   0   0 128
3 78 43 75   0   0 128
3 79 47 78   0   0 128
3 80 81 76   0   0 128
3 80 76 46   0   0 128
3 46 76 44   0   0 128
3 79 49 47   0   0 128
3 79 82 83   0   0 128
3 79 83 49   0   0 128
3 84 80 51   0   0 128
3 51 80 46   0   0 128
3 83 53 49   0   0 128
3 85 53 83   0   0 128
3 51 54 86   0   0 128
3 51 86 84   0   0 128
3 87 55 53   0   0 128
3 87 53 85   0   0 128
3 88 86 56   0   0 128
3 56 86 54   0   0 128
3 87 57 55   0   0 128
3 89 57 87   0   0 128
3 88 56 90   0   0 128
3 90 56 58   0   0 128
3 57 91 59   0   0 128
3 89 91 57   0   0 128
3 58 61 92   0   0 128
3 58 92 90   0   0 128
3 93 63 59   0   0 128
3 93 59 91   0   0 128
3 92 61 94   0   0 128
3 94 61 64   0   0 128
3 63 95 67   0   0 128
3 93 95 63   0   0 128
3 96 97 94   0   0 128
3 96 94 64   0   0 128
3 96 64 68   0   0 128
3 67 98 71   0   0 128
3 95 99 98   0   0 128
3 95 98 67   0   0 128
3 96 68 100   0   0 128
3 101 100 68   0   0 128
3 101 68 69   0   0 128
3 101 69 72   0   0 128
3 70 102 72   0   0 128
3 103 102 70   0   0 128
3 103 70 71   0   0 128
3 98 103 71   0   0 128
3 101 72 104   0   0 128
3 102 104 72   0   0 128
3 105 106 74   0   0 128
3 74 106 107   0   0 128
3 108 109 77   0   0 128
3 73 77 109   0   0 128
3 73 109 105   0   0 128
3 73 105 74   0   0 128
3 107 75 74   0   0 128
3 110 78 75   0   0 128
3 110 75 107   0   0 128
3 78 110 111   0   0 128
3 76 81 112   0   0 128
3 76 112 108   0   0 128
3 76 108 77   0   0 128
3 111 79 78   0   0 128
3 113 82 79   0   0 128
3 113 79 111   0   0 128
3 112 81 80   0   0 128
3 112 80 114   0   0 128
3 83 82 113   0   0 128
3 83 113 115   0   0 128
3 84 116 114   0   0 128
3 84 114 80   0   0 128
3 115 85 83   0   0 128
3 115 117 85   0   0 128
3 116 84 86   0   0 128
3 116 86 118   0   0 128
3 87 85 117   0   0 128
3 87 117 119   0   0 128
3 88 120 118   0   0 128
3 88 118 86   0   0 128
3 119 89 87   0   0 128
3 119 121 89   0   0 128
3 122 120 88   0   0 128
3 122 88 90   0   0 128
3 89 123 91   0   0 128
3 89 121 123   0   0 128
3 90 92 124   0   0 128
3 90 124 122   0   0 128
3 125 93 91   0   0 128
3 125 91 123   0   0 128
3 126 124 92   0   0 128
3 126 92 94   0   0 128
3 93 127 95   0   0 128
3 93 125 127   0   0 128
3 94 97 128   0   0 128
3 94 128 126   0   0 128
3 129 99 95   0   0 128
3 129 95 127   0   0 128
3 128 97 96   0   0 128
3 128 96 130   0   0 128
3 130 96 100   0   0 128
3 98 131 103   0   0 128
3 98 99 129   0   0 128
3 98 129 131   0   0 128
3 100 132 130   0   0 128
3 132 100 101   0   0 128
3 132 101 133   0   0 128
3 133 101 104   0   0 128
3 102 134 104   0   0 128
3 102 103 135   0   0 128
3 102 135 134   0   0 128
3 131 135 103   0   0 128
3 104 136 133   0   0 128
3 134 136 104   0   0 128
3 137 138 105   0   0 128
3 105 138 139   0   0 128
3 105 139 106   0   0 128
3 106 139 140   0   0 128
3 106 140 107   0   0 128
3 107 140 141   0   0 128
3 142 143 108   0   0 128
3 109 108 143   0   0 128
3 109 143 137   0   0 128
3 109 137 105   0   0 128
3 141 110 107   0   0 128
3 144 111 110   0   0 128
3 144 110 141   0   0 128
3 111 144 145   0   0 128
3 146 142 112   0   0 128
3 112 142 108   0   0 128
3 145 113 111   0   0 128
3 147 113 145   0   0 128
3 114 148 146   0   0 128
3 114 146 112   0   0 128
3 147 115 113   0   0 128
3 147 149 115   0   0 128
3 148 114 116   0   0 128
3 148 116 150   0   0 128
3 117 115 149   0   0 128
3 117 149 151   0   0 128
3 118 152 150   0   0 128
3 118 150 116   0   0 128
3 151 119 117   0   0 128
3 151 153 119   0   0 128
3 118 120 154   0   0 128
3 118 154 152   0   0 128
3 119 153 155   0   0 128
3 119 155 121   0   0 128
3 120 122 156   0   0 128
3 120 156 154   0   0 128
3 121 155 157   0   0 128
3 121 157 123   0   0 128
3 158 156 122   0   0 128
3 158 122 124   0   0 128
3 123 159 125   0   0 128
3 123 157 159   0   0 128
3 124 126 160   0   0 128
3 124 160 158   0   0 128
3 161 127 125   0   0 128
3 161 125 159   0   0 128
3 162 160 126   0   0 128
3 162 126 128   0   0 128
3 127 163 129   0   0 128
3 127 161 163   0   0 128
3 162 128 164   0   0 128
3 164 128 130   0   0 128
3 129 165 131   0   0 128
3 163 165 129   0   0 128
3 130 166 164   0   0 128
3 166 130 132   0   0 128
3 166 132 167   0   0 128
3 167 132 133   0   0 128
3 135 168 134   0   0 128
3 135 131 169   0   0 128
3 135 169 168   0   0 128
3 165 169 131   0   0 128
3 133 170 167   0   0 128
3 133 136 171   0   0 128
3 133 171 170   0   0 128
3 136 134 172   0   0 128
3 136 172 171   0   0 128
3 168 172 134   0   0 128
3 173 174 137   0   0 128
3 138 137 174   0   0 128
3 138 174 175   0   0 128
3 176 139 138 226  14 226
3 176 138 175 226  14 226
3 177 140 139 226  14 226
3 177 139 176 226  14 226
3 178 141 140   0   0 128
3 178 140 177   0   0 128
3 141 178 179   0   0 128
3 143 142 180   0   0 128
3 143 180 173   0   0 128
3 143 173 137   0   0 128
3 179 144 141   0   0 128
3 181 145 144   0   0 128
3 181 144 179   0   0 128
3 142 146 182   0   0 128
3 142 182 180   0   0 128
3 145 181 183   0   0 128
3 145 183 147   0   0 128
3 182 146 148   0   0 128
3 182 148 184   0   0 128
3 149 147 183   0   0 128
3 149 183 185   0   0 128
3 150 186 184   0   0 128
3 150 184 148   0   0 128
3 185 151 149   0   0 128
3 185 187 151   0   0 128
3 186 150 152   0   0 128
3 186 152 188   0   0 128
3 153 151 187   0   0 128
3 153 187 189   0   0 128
3 152 154 190 226  14 226
3 152 190 188 226  14 226
3 191 155 153 226  14 226
3 191 153 189 226  14 226
3 154 156 192 226  14 226
3 154 192 190 226  14 226
3 193 157 155 226  14 226
3 193 155 191 226  14 226
3 156 158 194   0   0 128
3 156 194 192   0   0 128
3 195 159 157   0   0 128
3 195 157 193   0   0 128
3 196 194 158   0   0 128
3 196 158 160   0   0 128
3 159 197 161   0   0 128
3 159 195 197   0   0 128
3 160 162 198   0   0 128
3 160 198 196   0   0 128
3 199 163 161   0   0 128
3 199 161 197   0   0 128
3 162 164 200   0   0 128
3 162 200 198   0   0 128
3 163 199 201   0   0 128
3 163 201 165   0   0 128
3 200 164 166   0   0 128
3 200 166 202   0   0 128
3 202 166 167   0   0 128
3 169 203 168   0   0 128
3 169 165 201   0   0 128
3 169 201 203   0   0 128
3 167 204 202   0   0 128
3 204 167 170   0   0 128
3 204 170 205   0   0 128
3 206 205 170 226  14 226
3 206 170 171 226  14 226
3 207 206 171 226  14 226
3 207 171 172 226  14 226
3 172 168 208   0   0 128
3 172 208 207   0   0 128
3 203 208 168   0   0 128
3 175 209 210 226  14 226
3 175 210 176 226  14 226
3 176 210 211 226  14 226
3 176 211 177 226  14 226
3 212 213 173   0   0 128
3 173 213 214   0   0 128
3 173 214 174   0   0 128
3 175 174 214 226  14 226
3 175 214 209 226  14 226
3 177 211 215 226  14 226
3 177 215 178 226  14 226
3 178 215 216   0   0 128
3 178 216 179   0   0 128
3 179 216 217   0   0 128
3 218 212 180   0   0 128
3 180 212 173   0   0 128
3 217 181 179   0   0 128
3 219 181 217   0   0 128
3 220 218 182   0   0 128
3 182 218 180   0   0 128
3 219 183 181   0   0 128
3 221 183 219   0   0 128
3 184 222 220   0   0 128
3 184 220 182   0   0 128
3 221 185 183   0   0 128
3 221 223 185   0   0 128
3 184 186 224   0   0 128
3 184 224 222   0   0 128
3 185 223 225   0   0 128
3 185 225 187   0   0 128
3 186 188 226 226  14 226
3 186 226 224 226  14 226
3 187 225 227 226  14 226
3 187 227 189 226  14 226
3 188 190 228 226  14 226
3 188 228 226 226  14 226
3 189 227 229 226  14 226
3 189 229 191 226  14 226
3 190 192 230 226  14 226
3 190 230 228 226  14 226
3 191 229 231 226  14 226
3 191 231 193 226  14 226
3 192 194 232 226  14 226
3 192 232 230 226  14 226
3 193 231 233 226  14 226
3 193 233 195 226  14 226
3 194 196 234   0   0 128
3 194 234 232   0   0 128
3 195 233 235   0   0 128
3 195 235 197   0   0 128
3 236 234 196   0   0 128
3 236 196 198   0   0 128
3 197 237 199   0   0 128
3 197 235 237   0   0 128
3 236 198 238   0   0 128
3 238 198 200   0   0 128
3 199 239 201   0   0 128
3 237 239 199   0   0 128
3 238 200 240   0   0 128
3 240 200 202   0   0 128
3 201 241 203   0   0 128
3 239 241 201   0   0 128
3 202 242 240   0   0 128
3 202 204 243   0   0 128
3 202 243 242   0   0 128
3 204 205 244 226  14 226
3 204 244 243 226  14 226
3 208 245 246 226  14 226
3 208 246 207 226  14 226
3 208 203 247   0   0 128
3 208 247 245   0   0 128
3 241 247 203   0   0 128
3 205 206 248 226  14 226
3 205 248 244 226  14 226
3 206 207 246 226  14 226
3 206 246 248 226  14 226
3 209 249 250 226  14 226
3 209 250 210 226  14 226
3 210 250 251 226  14 226
3 210 251 211 226  14 226
3 252 213 212   0   0 128
3 213 252 253   0   0 128
3 213 253 214   0   0 128
3 209 214 253 226  14 226
3 209 253 249 226  14 226
3 211 251 254 226  14 226
3 211 254 215 226  14 226
3 215 254 255   0   0 128
3 215 255 216   0   0 128
3 217 216 255   0   0 128
3 218 256 212   0   0 128
3 212 256 252   0   0 128
3 257 217 255   0   0 128
3 219 217 257   0   0 128
3 220 258 218   0   0 128
3 218 258 256   0   0 128
3 259 219 257   0   0 128
3 221 219 259   0   0 128
3 220 222 260   0   0 128
3 220 260 258   0   0 128
3 261 221 259   0   0 128
3 261 223 221   0   0 128
3 222 224 262   0   0 128
3 222 262 260   0   0 128
3 223 261 263   0   0 128
3 223 263 225   0   0 128
3 224 226 264 226  14 226
3 224 264 262 226  14 226
3 225 263 265 226  14 226
3 225 265 227 226  14 226
3 226 228 266 226  14 226
3 226 266 264 226  14 226
3 227 265 267 226  14 226
3 227 267 229 226  14 226
3 228 230 268 226  14 226
3 228 268 266 226  14 226
3 229 267 269 226  14 226
3 229 269 231 226  14 226
3 230 232 270 226  14 226
3 230 270 268 226  14 226
3 231 269 271 226  14 226
3 231 271 233 226  14 226
3 232 234 272   0   0 128
3 232 272 270   0   0 128
3 233 271 273   0   0 128
3 233 273 235   0   0 128
3 272 234 236   0   0 128
3 272 236 274   0   0 128
3 237 273 275   0   0 128
3 237 235 273   0   0 128
3 236 238 274   0   0 128
3 274 238 276   0   0 128
3 239 275 277   0   0 128
3 237 275 239   0   0 128
3 238 240 276   0   0 128
3 276 240 278   0   0 128
3 241 277 279   0   0 128
3 239 277 241   0   0 128
3 240 242 278   0   0 128
3 242 243 280   0   0 128
3 242 280 278   0   0 128
3 243 244 281 226  14 226
3 243 281 280 226  14 226
3 245 282 283 226  14 226
3 245 283 246 226  14 226
3 245 247 279   0   0 128
3 245 279 282   0   0 128
3 279 247 241   0   0 128
3 244 248 284 226  14 226
3 244 284 281 226  14 226
3 248 246 283 226  14 226
3 248 283 284 226  14 226
3 285 253 252   0   0 128
3 253 285 286   0   0 128
3 253 286 249   0   0 128
3 287 250 249 226  14 226
3 287 249 286 226  14 226
3 288 251 250 226  14 226
3 288 250 287 226  14 226
3 288 289 254   0   0 128
3 288 254 251   0   0 128
3 255 254 289   0   0 128
3 256 290 291   0   0 128
3 256 291 252   0   0 128
3 252 291 285   0   0 128
3 292 255 289   0   0 128
3 292 293 257   0   0 128
3 292 257 255   0   0 128
3 256 258 294   0   0 128
3 256 294 290   0   0 128
3 257 293 295   0   0 128
3 257 295 259   0   0 128
3 296 294 258   0   0 128
3 296 258 260   0   0 128
3 259 295 297   0   0 128
3 259 297 261   0   0 128
3 260 262 298   0   0 128
3 260 298 296   0   0 128
3 299 261 297   0   0 128
3 299 263 261   0   0 128
3 300 298 262   0   0 128
3 300 262 264   0   0 128
3 263 299 301   0   0 128
3 263 301 265   0   0 128
3 302 300 264 226  14 226
3 302 264 266 226  14 226
3 265 301 303 226  14 226
3 265 303 267 226  14 226
3 304 302 266 226  14 226
3 304 266 268 226  14 226
3 267 303 305 226  14 226
3 267 305 269 226  14 226
3 270 306 304   0   0 128
3 270 304 268   0   0 128
3 305 307 271   0   0 128
3 305 271 269   0   0 128
3 306 270 272   0   0 128
3 306 272 308   0   0 128
3 273 307 309   0   0 128
3 273 271 307   0   0 128
3 274 310 308   0   0 128
3 274 308 272   0   0 128
3 309 311 275   0   0 128
3 309 275 273   0   0 128
3 274 276 312   0   0 128
3 274 312 310   0   0 128
3 275 311 313   0   0 128
3 275 313 277   0   0 128
3 314 312 276   0   0 128
3 314 276 278   0   0 128
3 314 278 315   0   0 128
3 279 316 317   0   0 128
3 277 313 316   0   0 128
3 277 316 279   0   0 128
3 278 280 315   0   0 128
3 318 315 280   0   0 128
3 318 280 281   0   0 128
3 319 318 281 226  14 226
3 319 281 284 226  14 226
3 320 319 284 226  14 226
3 320 284 283 226  14 226
3 282 317 320   0   0 128
3 282 320 283   0   0 128
3 317 282 279   0   0 128
3 321 286 285   0   0 128
3 286 321 322   0   0 128
3 286 322 287   0   0 128
3 287 322 323   0   0 128
3 287 323 288   0   0 128
3 289 288 323   0   0 128
3 324 291 290   0   0 128
3 291 324 325   0   0 128
3 291 325 285   0   0 128
3 285 325 321   0   0 128
3 326 289 323   0   0 128
3 326 327 292   0   0 128
3 326 292 289   0   0 128
3 293 292 327   0   0 128
3 294 328 290   0   0 128
3 290 328 324   0   0 128
3 329 293 327   0   0 128
3 295 293 329   0   0 128
3 294 296 330   0   0 128
3 294 330 328   0   0 128
3 331 295 329   0   0 128
3 331 297 295   0   0 128
3 332 330 296   0   0 128
3 332 296 298   0   0 128
3 297 331 333   0   0 128
3 297 333 299   0   0 128
3 298 300 334   0   0 128
3 298 334 332   0   0 128
3 335 299 333   0   0 128
3 335 301 299   0   0 128
3 300 302 336   0   0 128
3 300 336 334   0   0 128
3 301 335 337   0   0 128
3 301 337 303   0   0 128
3 302 304 338   0   0 128
3 302 338 336   0   0 128
3 303 337 339   0   0 128
3 303 339 305   0   0 128
3 338 304 306   0   0 128
3 338 306 340   0   0 128
3 307 339 341   0   0 128
3 307 305 339   0   0 128
3 308 342 340   0   0 128
3 308 340 306   0   0 128
3 341 343 309   0   0 128
3 341 309 307   0   0 128
3 342 308 310   0   0 128
3 342 310 344   0   0 128
3 311 343 345   0   0 128
3 311 309 343   0   0 128
3 310 312 344   0   0 128
3 344 312 346   0   0 128
3 313 345 347   0   0 128
3 311 345 313   0   0 128
3 312 314 346   0   0 128
3 348 346 314   0   0 128
3 348 314 315   0   0 128
3 348 315 349   0   0 128
3 317 350 351   0   0 128
3 316 347 350   0   0 128
3 316 350 317   0   0 128
3 347 316 313   0   0 128
3 315 318 349   0   0 128
3 318 319 352   0   0 128
3 318 352 349   0   0 128
3 319 320 351   0   0 128
3 319 351 352   0   0 128
3 351 320 317   0   0 128
3 353 322 321   0   0 128
3 323 322 353   0   0 128
3 354 325 324   0   0 128
3 325 354 355   0   0 128
3 325 355 321   0   0 128
3 321 355 353   0   0 128
3 356 323 353   0   0 128
3 356 357 326   0   0 128
3 356 326 323   0   0 128
3 327 326 357   0   0 128
3 328 358 359   0   0 128
3 328 359 324   0   0 128
3 324 359 354   0   0 128
3 360 327 357   0   0 128
3 360 361 329   0   0 128
3 360 329 327   0   0 128
3 362 358 328   0   0 128
3 362 328 330   0   0 128
3 329 361 363   0   0 128
3 329 363 331   0   0 128
3 330 332 364   0   0 128
3 330 364 362   0   0 128
3 365 331 363   0   0 128
3 365 333 331   0   0 128
3 366 364 332   0   0 128
3 366 332 334   0   0 128
3 333 365 367   0   0 128
3 333 367 335   0   0 128
3 334 336 368   0   0 128
3 334 368 366   0   0 128
3 369 335 367   0   0 128
3 369 337 335   0   0 128
3 368 336 338   0   0 128
3 368 338 370   0   0 128
3 339 369 371   0   0 128
3 339 337 369   0   0 128
3 340 372 370   0   0 128
3 340 370 338   0   0 128
3 371 373 341   0   0 128
3 371 341 339   0   0 128
3 372 340 342   0   0 128
3 372 342 374   0   0 128
3 343 373 375   0   0 128
3 343 341 373   0   0 128
3 344 376 374   0   0 128
3 344 374 342   0   0 128
3 375 377 345   0   0 128
3 375 345 343   0   0 128
3 378 376 344   0   0 128
3 378 344 346   0   0 128
3 378 346 379   0   0 128
3 347 380 381   0   0 128
3 345 377 380   0   0 128
3 345 380 347   0   0 128
3 346 348 379   0   0 128
3 382 379 348   0   0 128
3 382 348 349   0   0 128
3 382 349 383   0   0 128
3 351 384 383   0   0 128
3 350 381 384   0   0 128
3 350 384 351   0   0 128
3 381 350 347   0   0 128
3 349 352 383   0   0 128
3 383 352 351   0   0 128
3 355 385 353   0   0 128
3 356 353 385   0   0 128
3 359 386 354   0   0 128
3 387 355 354   0   0 128
3 387 354 386   0   0 128
3 355 387 385   0   0 128
3 388 356 385   0   0 128
3 389 357 356   0   0 128
3 389 356 388   0   0 128
3 360 357 389   0   0 128
3 359 358 362   0   0 128
3 359 362 390   0   0 128
3 359 390 386   0   0 128
3 391 360 389   0   0 128
3 363 361 360   0   0 128
3 363 360 391   0   0 128
3 364 392 362   0   0 128
3 362 392 390   0   0 128
3 393 363 391   0   0 128
3 365 363 393   0   0 128
3 394 392 364   0   0 128
3 394 364 366   0   0 128
3 365 393 395   0   0 128
3 365 395 367   0   0 128
3 368 396 366   0   0 128
3 366 396 394   0   0 128
3 397 367 395   0   0 128
3 369 367 397   0   0 128
3 368 370 396   0   0 128
3 396 370 398   0   0 128
3 371 397 399   0   0 128
3 369 397 371   0   0 128
3 400 398 370   0   0 128
3 400 370 372   0   0 128
3 371 399 401   0   0 128
3 371 401 373   0   0 128
3 372 374 400   0   0 128
3 400 374 402   0   0 128
3 375 401 403   0   0 128
3 373 401 375   0   0 128
3 374 376 378   0   0 128
3 374 378 402   0   0 128
3 402 378 404   0   0 128
3 380 403 405   0   0 128
3 380 377 375   0   0 128
3 380 375 403   0   0 128
3 378 379 404   0   0 128
3 406 404 379   0   0 128
3 406 379 382   0   0 128
3 406 382 407   0   0 128
3 384 408 407   0   0 128
3 405 408 384   0   0 128
3 405 384 381   0   0 128
3 380 405 381   0   0 128
3 382 383 407   0   0 128
3 384 407 383   0   0 128
3 387 409 385   0   0 128
3 388 385 409   0   0 128
3 390 410 386   0   0 128
3 387 386 410   0   0 128
3 387 410 411   0   0 128
3 387 411 409   0   0 128
3 412 388 409   0   0 128
3 413 389 388   0   0 128
3 413 388 412   0   0 128
3 389 413 391   0   0 128
3 392 414 390   0   0 128
3 410 390 414   0   0 128
3 410 414 415   0   0 128
3 410 415 411   0   0 128
3 416 413 412   0   0 128
3 417 391 413   0   0 128
3 417 413 416   0   0 128
3 391 417 393   0   0 128
3 414 392 394   0   0 128
3 414 394 418   0   0 128
3 414 418 415   0   0 128
3 419 417 416   0   0 128
3 395 393 417   0   0 128
3 395 417 419   0   0 128
3 396 420 394   0   0 128
3 394 420 418   0   0 128
3 421 395 419   0   0 128
3 397 395 421   0   0 128
3 396 398 420   0   0 128
3 420 398 422   0   0 128
3 399 421 423   0   0 128
3 397 421 399   0   0 128
3 398 400 424   0   0 128
3 398 424 422   0   0 128
3 422 424 425   0   0 128
3 426 423 427   0   0 128
3 426 401 399   0   0 128
3 426 399 423   0   0 128
3 402 424 400   0   0 128
3 424 402 428   0   0 128
3 424 428 425   0   0 128
3 425 428 429   0   0 128
3 430 427 431   0   0 128
3 430 403 426   0   0 128
3 430 426 427   0   0 128
3 401 426 403   0   0 128
3 404 428 402   0   0 128
3 428 404 406   0   0 128
3 428 406 429   0   0 128
3 429 406 432   0   0 128
3 408 431 432   0   0 128
3 408 405 430   0   0 128
3 408 430 431   0   0 128
3 403 430 405   0   0 128
3 406 407 432   0   0 128
3 408 432 407   0   0 128
3 411 433 409   0   0 128
3 409 433 412   0   0 128
3 415 434 411   0   0 128
3 411 434 435   0   0 128
3 411 435 433   0   0 128
3 433 435 436   0   0 128
3 433 436 412   0   0 128
3 412 436 416   0   0 128
3 418 437 415   0   0 128
3 434 415 437   0   0 128
3 434 437 438   0   0 128
3 439 435 434 226  14 226
3 439 434 438 226  14 226
3 440 436 435 226  14 226
3 440 435 439 226  14 226
3 441 416 436   0   0 128
3 441 436 440   0   0 128
3 416 441 419   0   0 128
3 420 442 418   0   0 128
3 418 442 443   0   0 128
3 418 443 437   0   0 128
3 444 438 437 226  14 226
3 444 437 443 226  14 226
3 441 440 445 226  14 226
3 441 445 446 226  14 226
3 441 446 447   0   0 128
3 441 447 419   0   0 128
3 419 447 421   0   0 128
3 422 442 420   0   0 128
3 442 422 448   0   0 128
3 442 448 443   0   0 128
3 449 444 443 226  14 226
3 449 443 448 226  14 226
3 446 445 450 226  14 226
3 446 450 451 226  14 226
3 446 451 423   0   0 128
3 446 423 447   0   0 128
3 421 447 423   0   0 128
3 425 448 422   0   0 128
3 448 425 452   0   0 128
3 448 452 449   0   0 128
3 453 449 452 226  14 226
3 453 452 454 226  14 226
3 450 453 454 226  14 226
3 450 454 455 226  14 226
3 455 427 451   0   0 128
3 455 451 450   0   0 128
3 423 451 427   0   0 128
3 429 452 425   0   0 128
3 452 429 456   0   0 128
3 452 456 454   0   0 128
3 454 456 431   0   0 128
3 454 431 455   0   0 128
3 427 455 431   0   0 128
3 432 456 429   0   0 128
3 431 456 432   0   0 128
3 438 444 457 226  14 226
3 438 457 439 226  14 226
3 439 457 445 226  14 226
3 439 445 440 226  14 226
3 444 449 453 226  14 226
3 444 453 457 226  14 226
3 457 453 450 226  14 226
3 457 450 445 226  14 226
